<svg xmlns="http://www.w3.org/2000/svg" height="30" viewBox="0 0 136.14 30.56">
<g transform="translate(1.755, 0)" fill="#00a0d8">
    <g>
        <path d="M5.02-33.80L34.56-33.80L34.07-28.62L16.96-28.62L15.93-21.92L31.97-21.92L31.48-16.74L14.85-16.74L13.82-8.42L31.97-8.42L31.48-3.24L2.43-3.24L6.59-31.75L5.02-33.80Z" transform="translate(-4.14, 33.9)"></path>
        <path d="M7.34-32.29L5.78-33.80L16.63-33.80L21.33-25.00L27.54-32.78L26.51-33.80L38.93-33.80L25.49-18.79L34.78-3.24L24.41-3.24L19.76-12.58L11.99-3.24L1.62-3.24L15.12-18.79L7.34-32.29Z" transform="translate(27.23, 33.9)"></path>
        <path d="M4.00-33.80L16.42-33.80L12.80-8.42L32.99-8.42L32.51-3.24L5.56-3.24Q4.00-3.24 3.21-4.27Q2.43-5.29 2.43-6.86L2.43-6.86L5.56-31.75L4.00-33.80Z" transform="translate(63.8, 33.9)"></path>
        <path d="M38.83-33.80L37.80-25.00L27.43-25.00L27.92-28.62L15.50-28.62L12.91-8.42L25.33-8.42L25.87-14.63L22.73-19.82L36.72-19.82L34.67-3.24L5.62-3.24Q4.86-3.24 4.21-3.51Q3.56-3.78 3.10-4.27Q2.65-4.75 2.48-5.43Q2.32-6.10 2.54-6.86L2.54-6.86L6.16-33.80L38.83-33.80Z" transform="translate(95.6, 33.9)"></path>
    </g>
</g>
</svg>