<svg class="icon exlg-usercom-edit" viewBox="0 0 1024 1024" version="1.1" xmlns="http://www.w3.org/2000/svg" p-id="942"><path d="M295.384615 708.923077h433.23077a19.692308 19.692308 0 1 1 0 39.384615h-433.23077a19.692308 19.692308 0 1 1 0-39.384615zM590.769231 303.576615L618.653538 275.692308l72.979693 73.019077-27.844923 27.844923L590.769231 303.576615z m-236.307693 196.923077L382.345846 472.615385l89.284923 89.324307-27.844923 27.844923L354.461538 500.499692zM401.329231 616.841846l308.342154-308.342154-55.689847-55.689846-308.381538 308.342154-8.152615 63.881846 63.881846-8.192z m-93.065846-74.043077l317.833846-317.833846a39.384615 39.384615 0 0 1 55.729231 0l55.689846 55.689846a39.384615 39.384615 0 0 1 0 55.689846l-317.833846 317.833847-127.763693 16.344615 16.344616-127.724308z" p-id="943"></path></svg>